<mxfile host="app.diagrams.net" agent="Mozilla/5.0 (Windows NT 10.0; Win64; x64) AppleWebKit/537.36 (KHTML, like Gecko) Chrome/131.0.0.0 Safari/537.36" version="25.0.3">
  <diagram name="第 1 页" id="79SmLythF5ySNqcfuM_x">
    <mxGraphModel dx="2074" dy="1140" grid="1" gridSize="10" guides="1" tooltips="1" connect="1" arrows="1" fold="1" page="1" pageScale="1" pageWidth="827" pageHeight="1169" math="0" shadow="0">
      <root>
        <mxCell id="0" />
        <mxCell id="1" parent="0" />
        <mxCell id="2XsE_RVfTJXTI753LQmg-7" style="edgeStyle=orthogonalEdgeStyle;rounded=0;orthogonalLoop=1;jettySize=auto;html=1;entryX=0.5;entryY=0;entryDx=0;entryDy=0;" edge="1" parent="1" source="2XsE_RVfTJXTI753LQmg-4" target="2XsE_RVfTJXTI753LQmg-5">
          <mxGeometry relative="1" as="geometry" />
        </mxCell>
        <mxCell id="2XsE_RVfTJXTI753LQmg-4" value="某个互联网内容" style="shape=parallelogram;perimeter=parallelogramPerimeter;whiteSpace=wrap;html=1;fixedSize=1;" vertex="1" parent="1">
          <mxGeometry x="319" y="140" width="190" height="60" as="geometry" />
        </mxCell>
        <mxCell id="2XsE_RVfTJXTI753LQmg-8" style="edgeStyle=orthogonalEdgeStyle;rounded=0;orthogonalLoop=1;jettySize=auto;html=1;entryX=0;entryY=0.5;entryDx=0;entryDy=0;" edge="1" parent="1" source="2XsE_RVfTJXTI753LQmg-5" target="2XsE_RVfTJXTI753LQmg-6">
          <mxGeometry relative="1" as="geometry" />
        </mxCell>
        <mxCell id="2XsE_RVfTJXTI753LQmg-9" value="&lt;font style=&quot;font-size: 16px;&quot;&gt;否&lt;/font&gt;" style="edgeLabel;html=1;align=center;verticalAlign=middle;resizable=0;points=[];" vertex="1" connectable="0" parent="2XsE_RVfTJXTI753LQmg-8">
          <mxGeometry y="2" relative="1" as="geometry">
            <mxPoint as="offset" />
          </mxGeometry>
        </mxCell>
        <mxCell id="2XsE_RVfTJXTI753LQmg-14" style="edgeStyle=orthogonalEdgeStyle;rounded=0;orthogonalLoop=1;jettySize=auto;html=1;entryX=0.5;entryY=0;entryDx=0;entryDy=0;" edge="1" parent="1" source="2XsE_RVfTJXTI753LQmg-5" target="2XsE_RVfTJXTI753LQmg-10">
          <mxGeometry relative="1" as="geometry" />
        </mxCell>
        <mxCell id="2XsE_RVfTJXTI753LQmg-15" value="&lt;font style=&quot;font-size: 16px;&quot;&gt;是&lt;/font&gt;" style="edgeLabel;html=1;align=center;verticalAlign=middle;resizable=0;points=[];" vertex="1" connectable="0" parent="2XsE_RVfTJXTI753LQmg-14">
          <mxGeometry x="0.0857" relative="1" as="geometry">
            <mxPoint as="offset" />
          </mxGeometry>
        </mxCell>
        <mxCell id="2XsE_RVfTJXTI753LQmg-5" value="判断是否相同民族&lt;br&gt;（通常通过ip归属地）" style="rhombus;whiteSpace=wrap;html=1;" vertex="1" parent="1">
          <mxGeometry x="324" y="270" width="180" height="80" as="geometry" />
        </mxCell>
        <mxCell id="2XsE_RVfTJXTI753LQmg-6" value="美帝国主义" style="rounded=0;whiteSpace=wrap;html=1;" vertex="1" parent="1">
          <mxGeometry x="580" y="280" width="120" height="60" as="geometry" />
        </mxCell>
        <mxCell id="2XsE_RVfTJXTI753LQmg-12" style="edgeStyle=orthogonalEdgeStyle;rounded=0;orthogonalLoop=1;jettySize=auto;html=1;entryX=0;entryY=0.5;entryDx=0;entryDy=0;" edge="1" parent="1" source="2XsE_RVfTJXTI753LQmg-10" target="2XsE_RVfTJXTI753LQmg-11">
          <mxGeometry relative="1" as="geometry" />
        </mxCell>
        <mxCell id="2XsE_RVfTJXTI753LQmg-13" value="&lt;font style=&quot;font-size: 16px;&quot;&gt;否&lt;/font&gt;" style="edgeLabel;html=1;align=center;verticalAlign=middle;resizable=0;points=[];" vertex="1" connectable="0" parent="2XsE_RVfTJXTI753LQmg-12">
          <mxGeometry y="-2" relative="1" as="geometry">
            <mxPoint as="offset" />
          </mxGeometry>
        </mxCell>
        <mxCell id="2XsE_RVfTJXTI753LQmg-17" style="edgeStyle=orthogonalEdgeStyle;rounded=0;orthogonalLoop=1;jettySize=auto;html=1;entryX=0.5;entryY=0;entryDx=0;entryDy=0;" edge="1" parent="1" source="2XsE_RVfTJXTI753LQmg-10" target="2XsE_RVfTJXTI753LQmg-16">
          <mxGeometry relative="1" as="geometry" />
        </mxCell>
        <mxCell id="2XsE_RVfTJXTI753LQmg-18" value="&lt;font style=&quot;font-size: 16px;&quot;&gt;是&lt;/font&gt;" style="edgeLabel;html=1;align=center;verticalAlign=middle;resizable=0;points=[];" vertex="1" connectable="0" parent="2XsE_RVfTJXTI753LQmg-17">
          <mxGeometry x="-0.2" y="1" relative="1" as="geometry">
            <mxPoint as="offset" />
          </mxGeometry>
        </mxCell>
        <mxCell id="2XsE_RVfTJXTI753LQmg-10" value="内容是否有理有据&lt;br&gt;制作是否精良" style="rhombus;whiteSpace=wrap;html=1;" vertex="1" parent="1">
          <mxGeometry x="332" y="420" width="164" height="80" as="geometry" />
        </mxCell>
        <mxCell id="2XsE_RVfTJXTI753LQmg-11" value="被洗脑的大聪明&lt;br&gt;走狗&lt;br&gt;五毛" style="rounded=0;whiteSpace=wrap;html=1;" vertex="1" parent="1">
          <mxGeometry x="580" y="430" width="120" height="60" as="geometry" />
        </mxCell>
        <mxCell id="2XsE_RVfTJXTI753LQmg-16" value="16e&lt;br&gt;罕见&lt;br&gt;公知" style="rounded=0;whiteSpace=wrap;html=1;" vertex="1" parent="1">
          <mxGeometry x="354" y="560" width="120" height="60" as="geometry" />
        </mxCell>
      </root>
    </mxGraphModel>
  </diagram>
</mxfile>
